<svg width="86" height="90" fill="none" xmlns="http://www.w3.org/2000/svg"><path d="M0 0h85.46l-.968 10.404-83.234-.193L0 0zm15.87 55.36l27.922 22.066 1.087 6.37-1.087 6.066-36.051-28.55 8.13-5.953z" fill="#7A18D5"/><path d="M15.39 50.085l.532 5.42-3.17 3.782-5.008 2.025-2.372-18.776 10.018 7.55zm55.6 5.565L43.796 77.426l-.533 6.146.533 6.291 35.52-28.793-2.144-9.401-6.18 3.981zM28.937 44.859h34.89l-3.436 9.05H26.47l2.468-9.05zM1.23 9.882l10.237-.736 1.887 23.857-8.759 4.162L1.23 9.882z" fill="#7A18D5"/><path d="M4.598 37.165l8.662-4.404 16.404 12.195-3.197 8.952-21.87-16.743z" fill="#7A18D5"/><path d="M4.598 37.165l8.662-4.404 16.404 12.195-3.197 8.952-21.87-16.743zM75.684 9.259l8.905.081-2.42 24.728-8.226-6.872L75.685 9.26zm-49.356 12.13H61.46v9.098H26.328z" fill="#7A18D5"/><path d="M61.465 21.389l20.027 16.55-7.694 5.42-18.275-14.615 5.942-7.355z" fill="#7A18D5"/><path d="M81.488 37.938L79.311 61.07l-8.324-5.42 1.286-18.195 9.215.483zm-66.582-7.113l11.42-9.436 6.146 5.952-10.355 8.565-7.21-5.08zm42.68 13.986l6.678-5.468 5.71 5.371-9.581 9.195-2.807-9.098z" fill="#7A18D5"/></svg>